<?xml version="1.0" encoding="UTF-8"?>
<svg enable-background="new 0 0 459 459" version="1.1" viewBox="0 0 459 459" xml:space="preserve" xmlns="http://www.w3.org/2000/svg">
	<path d="m229.5 0c-126.75 0-229.5 102.75-229.5 229.5s102.75 229.5 229.5 229.5 229.5-102.75 229.5-229.5-102.75-229.5-229.5-229.5zm80.792 239.65-111.76 76.084c-3.761 2.56-8.63 2.831-12.652 0.704-4.022-2.128-6.538-6.305-6.538-10.855v-152.17c0-4.55 2.516-8.727 6.538-10.855 4.022-2.127 8.891-1.857 12.652 0.704l111.76 76.084c3.359 2.287 5.37 6.087 5.37 10.151s-2.01 7.864-5.37 10.151z"/>
</svg>
